<?xml version="1.0" standalone="no"?>
<!DOCTYPE svg PUBLIC "-//W3C//DTD SVG 20010904//EN"
 "http://www.w3.org/TR/2001/REC-SVG-20010904/DTD/svg10.dtd">
<svg version="1.0" xmlns="http://www.w3.org/2000/svg"
 width="1920.000000pt" height="1080.000000pt" viewBox="0 0 1920.000000 1080.000000"
 preserveAspectRatio="xMidYMid meet">

<g transform="translate(0.000000,1080.000000) scale(0.100000,-0.100000)"
fill="#000000" stroke="none">
<path d="M9470 6354 c-158 -31 -297 -84 -401 -155 -75 -50 -211 -183 -257
-251 -55 -81 -112 -204 -139 -305 -23 -86 -27 -116 -26 -243 0 -123 4 -160 25
-241 91 -340 350 -597 697 -691 111 -30 332 -30 451 -1 381 96 653 385 726
770 21 110 14 284 -15 394 -89 344 -354 611 -691 699 -83 22 -307 36 -370 24z
m520 -714 c6 -25 13 -54 16 -65 4 -15 0 -14 -17 8 -48 62 -160 86 -236 50
-106 -50 -125 -233 -36 -349 53 -70 182 -106 251 -70 29 15 71 58 91 91 15 24
13 19 -19 -67 l-24 -67 -71 -6 c-182 -17 -318 58 -360 198 -46 156 21 281 170
318 17 4 74 7 127 6 l97 -2 11 -45z m-491 29 c37 -13 51 -35 51 -81 0 -59 -83
-123 -212 -164 l-58 -18 0 -93 c0 -86 2 -96 25 -118 l24 -25 -92 1 c-51 0 -85
3 -77 6 37 13 40 32 40 248 0 216 -3 235 -40 248 -8 3 57 6 146 6 94 1 174 -4
193 -10z m-397 -671 c5 -33 -3 -78 -13 -78 -5 0 -9 23 -9 50 0 50 16 70 22 28z
m48 7 c0 -8 -2 -15 -4 -15 -2 0 -6 7 -10 15 -3 8 -1 15 4 15 6 0 10 -7 10 -15z
m82 -35 c9 -27 13 -50 8 -50 -4 0 -13 20 -20 45 -7 24 -16 42 -21 39 -5 -3 -9
0 -9 5 0 6 6 11 13 11 7 0 20 -22 29 -50z m51 4 c-4 -45 -4 -45 24 -42 23 2
28 7 26 26 -2 13 1 21 7 17 16 -10 12 -42 -6 -49 -9 -3 -27 -6 -40 -6 -22 0
-24 4 -24 50 0 28 4 50 8 50 5 0 7 -21 5 -46z m57 37 c0 -5 -6 -14 -14 -20
-12 -10 -13 -8 -9 8 5 21 23 30 23 12z m50 -37 c0 -44 1 -46 25 -42 13 3 22 1
19 -3 -3 -5 -18 -9 -35 -9 -28 0 -29 1 -29 50 0 28 5 50 10 50 6 0 10 -21 10
-46z m82 13 c-2 -22 2 -39 13 -50 9 -10 12 -17 6 -17 -6 0 -18 11 -27 25 -14
21 -15 31 -6 50 15 33 19 31 14 -8z m76 21 c19 -19 14 -53 -10 -74 l-21 -19
18 28 c16 25 16 29 1 52 -17 26 -9 34 12 13z m104 0 c-19 -19 -14 -55 11 -74
16 -12 17 -15 4 -10 -10 3 -21 6 -23 6 -3 0 -9 12 -14 26 -11 28 2 64 22 64 9
0 9 -3 0 -12z m100 -34 l-4 -47 31 5 c17 2 31 1 31 -4 0 -4 -16 -8 -35 -8
l-35 0 0 50 c0 28 4 50 8 50 5 0 7 -21 4 -46z m100 -26 c-7 -49 -17 -30 -13
24 3 40 6 47 11 28 3 -14 4 -37 2 -52z m58 64 c0 -4 -5 -13 -11 -19 -8 -8 -6
-19 5 -42 9 -17 13 -31 9 -31 -16 0 -36 60 -24 74 6 7 8 16 4 19 -3 4 -1 7 5
7 7 0 12 -4 12 -8z m42 -42 c2 -29 -1 -50 -7 -50 -5 0 -10 23 -10 50 0 65 12
65 17 0z m56 38 c14 -14 16 -64 2 -73 -6 -4 -7 5 -4 23 4 20 1 34 -11 45 -9
10 -13 17 -8 17 5 0 14 -5 21 -12z m104 -38 c9 -27 13 -50 8 -50 -4 0 -13 20
-20 45 -7 24 -16 42 -21 39 -5 -3 -9 0 -9 5 0 6 6 11 13 11 7 0 20 -22 29 -50z"/>
<path d="M9320 5644 c-32 -13 -40 -38 -40 -122 0 -82 0 -83 23 -76 42 13 120
56 143 79 29 29 31 75 5 99 -19 17 -104 30 -131 20z"/>
</g>
</svg>
